<svg width="22" height="23" viewBox="0 0 22 23" fill="none" xmlns="http://www.w3.org/2000/svg">
<path d="M17.1875 19.8641C17.7953 19.8641 18.3782 19.6227 18.8079 19.1929C19.2377 18.7631 19.4791 18.1802 19.4791 17.5724V5.19743C19.4791 4.58964 19.2377 4.00675 18.8079 3.57698C18.3782 3.1472 17.7953 2.90576 17.1875 2.90576C16.5797 2.90576 15.9968 3.1472 15.567 3.57698C15.1373 4.00675 14.8958 4.58964 14.8958 5.19743V17.5724C14.8958 18.1802 15.1373 18.7631 15.567 19.1929C15.9968 19.6227 16.5797 19.8641 17.1875 19.8641ZM11 19.8641C11.6078 19.8641 12.1907 19.6227 12.6204 19.1929C13.0502 18.7631 13.2916 18.1802 13.2916 17.5724V10.2391C13.2916 9.63131 13.0502 9.04841 12.6204 8.61864C12.1907 8.18887 11.6078 7.94743 11 7.94743C10.3922 7.94743 9.8093 8.18887 9.37953 8.61864C8.94976 9.04841 8.70831 9.63131 8.70831 10.2391V17.5724C8.70831 18.1802 8.94976 18.7631 9.37953 19.1929C9.8093 19.6227 10.3922 19.8641 11 19.8641Z" stroke="#373435" stroke-linecap="round" stroke-linejoin="round"/>
<path d="M4.81251 19.8641C6.07816 19.8641 7.10418 18.8381 7.10418 17.5724C7.10418 16.3068 6.07816 15.2808 4.81251 15.2808C3.54686 15.2808 2.52084 16.3068 2.52084 17.5724C2.52084 18.8381 3.54686 19.8641 4.81251 19.8641Z" stroke="#373435" stroke-linecap="round" stroke-linejoin="round"/>
</svg>
