<svg width="19" height="20" viewBox="0 0 19 20" fill="none" xmlns="http://www.w3.org/2000/svg">
<path d="M5.8074 19.616C5.3854 19.616 5.02973 19.4713 4.7404 19.182C4.45106 18.8927 4.30673 18.5373 4.3074 18.116C4.30806 17.6947 4.4524 17.339 4.7404 17.049C5.02973 16.7603 5.3854 16.616 5.8074 16.616C6.2294 16.616 6.58473 16.7603 6.8734 17.049C7.16206 17.3377 7.30673 17.6933 7.3074 18.116C7.30806 18.5387 7.1634 18.894 6.8734 19.182C6.5834 19.47 6.22806 19.6147 5.8074 19.616ZM15.1914 19.616C14.7701 19.616 14.4147 19.4713 14.1254 19.182C13.8361 18.8927 13.6914 18.5373 13.6914 18.116C13.6914 17.6947 13.8361 17.339 14.1254 17.049C14.4147 16.7603 14.7701 16.616 15.1914 16.616C15.6127 16.616 15.9684 16.7603 16.2584 17.049C16.5471 17.3383 16.6914 17.694 16.6914 18.116C16.6914 18.5373 16.5471 18.8927 16.2584 19.182C15.9691 19.4713 15.6134 19.616 15.1914 19.616ZM2.3074 2.00001H0.999397C0.857396 2.00001 0.73873 1.95201 0.643397 1.85601C0.548063 1.76001 0.500063 1.64101 0.499396 1.49901C0.49873 1.35701 0.54673 1.23834 0.643397 1.14301C0.740063 1.04767 0.85873 1.00001 0.999397 1.00001H2.4354C2.59473 1.00001 2.73973 1.04001 2.8704 1.12001C3.00106 1.20001 3.09906 1.31334 3.1644 1.46001L7.0444 9.61601H13.6784C13.7937 9.61601 13.8964 9.58701 13.9864 9.52901C14.0757 9.47101 14.1524 9.39101 14.2164 9.28901L17.5724 3.25001C17.6177 3.17334 17.6777 3.11234 17.7524 3.06701C17.8271 3.02167 17.9094 2.99934 17.9994 3.00001C18.1894 3.00001 18.3324 3.08234 18.4284 3.24701C18.5237 3.41167 18.5247 3.57734 18.4314 3.74401L15.0674 9.83401C14.9227 10.078 14.7344 10.2693 14.5024 10.408C14.2704 10.5467 14.0164 10.616 13.7404 10.616H6.5994L5.3844 12.846C5.28173 13 5.2784 13.1667 5.3744 13.346C5.4704 13.5253 5.61473 13.6153 5.8074 13.616H16.1914C16.3334 13.616 16.4524 13.6637 16.5484 13.759C16.6437 13.855 16.6914 13.974 16.6914 14.116C16.6914 14.258 16.6437 14.3767 16.5484 14.472C16.4531 14.5673 16.3341 14.6153 16.1914 14.616H5.8074C5.22406 14.616 4.78773 14.371 4.4984 13.881C4.20906 13.391 4.20306 12.896 4.4804 12.396L5.9844 9.71601L2.3074 2.00001ZM10.4994 8.00001C10.3254 8.00001 10.1794 7.94101 10.0614 7.82301C9.9434 7.70501 9.8844 7.55901 9.8844 7.38501C9.8844 7.21101 9.9434 7.06467 10.0614 6.94601C10.1794 6.82734 10.3254 6.76867 10.4994 6.77001C10.6734 6.77134 10.8197 6.83034 10.9384 6.94701C11.0571 7.06367 11.1157 7.21001 11.1144 7.38601C11.1131 7.56201 11.0541 7.70801 10.9374 7.82401C10.8207 7.94001 10.6747 7.99867 10.4994 8.00001ZM10.4994 5.00001C10.3567 5.00001 10.2377 4.95201 10.1424 4.85601C10.0471 4.76001 9.9994 4.64134 9.9994 4.50001V0.500007C9.9994 0.358007 10.0474 0.23934 10.1434 0.144007C10.2394 0.0486736 10.3584 0.000673516 10.5004 6.84931e-06C10.6424 -0.000659817 10.7611 0.0473402 10.8564 0.144007C10.9517 0.240674 10.9994 0.35934 10.9994 0.500007V4.50001C10.9994 4.64201 10.9514 4.76067 10.8554 4.85601C10.7594 4.95134 10.6404 4.99934 10.4984 5.00001" fill="black"/>
</svg>
