<svg width="16" height="16" viewBox="0 0 16 16" fill="none" xmlns="http://www.w3.org/2000/svg">
<path d="M0.815802 8L0.351802 7.74636C0.303957 7.90916 0.303957 8.09084 0.351802 8.25364L0.815802 8ZM14.8158 8L15.2798 8.25364C15.3276 8.09084 15.3276 7.90916 15.2798 7.74636L14.8158 8ZM7.8158 14.1364C5.5018 14.1364 3.8768 12.5655 2.8128 10.9536C2.2314 10.0668 1.74369 9.07356 1.3638 8.00273C1.33597 7.92162 1.3093 7.83979 1.2838 7.75727L1.2798 7.74773L0.815802 8L0.351802 8.25364V8.25636L0.354802 8.26182C0.363128 8.29064 0.371796 8.31928 0.380802 8.34773L0.458802 8.58364C0.880308 9.77456 1.42226 10.879 2.0688 11.8645C3.2558 13.6632 5.1298 15.5 7.8158 15.5V14.1364ZM0.815802 8L1.2798 8.25364L1.2838 8.24273C1.3082 8.15957 1.33489 8.07769 1.3638 7.99727C1.74369 6.92644 2.2314 5.9332 2.8128 5.04636C3.8758 3.43455 5.5018 1.86364 7.8158 1.86364V0.5C5.1298 0.5 3.2548 2.33818 2.0688 4.13545C1.42225 5.12103 0.880296 6.22543 0.458802 7.41636C0.422462 7.52262 0.387787 7.62991 0.354802 7.73818L0.352802 7.74364V7.745H0.350802L0.815802 8ZM7.8158 1.86364C10.1298 1.86364 11.7548 3.43455 12.8188 5.04636C13.4002 5.93323 13.8879 6.92645 14.2678 7.99727C14.2957 8.07832 14.3224 8.16016 14.3478 8.24273L14.3518 8.25227L14.8158 8L15.2798 7.74636V7.74364L15.2768 7.73818C15.2692 7.70895 15.2606 7.68028 15.2508 7.65227C15.1331 7.29266 15.003 6.9409 14.8608 6.59818C14.4942 5.71617 14.059 4.8905 13.5628 4.13545C12.3758 2.33818 10.5018 0.5 7.8158 0.5V1.86364ZM14.8158 8C14.6609 7.91622 14.5062 7.83167 14.3518 7.74636L14.3488 7.75727L14.3338 7.805L14.2678 8.00273C13.8879 9.07355 13.4002 10.0668 12.8188 10.9536C11.7558 12.5655 10.1298 14.1364 7.8158 14.1364V15.5C10.5018 15.5 12.3768 13.6618 13.5628 11.8659C14.2094 10.8799 14.7514 9.77506 15.1728 8.58364C15.2091 8.47736 15.2438 8.37007 15.2768 8.26182L15.2788 8.25636V8.255L15.2798 8.25364L14.8158 8ZM7.8158 10.0455C7.41798 10.0455 7.03645 9.82995 6.75514 9.44635C6.47384 9.06276 6.3158 8.54249 6.3158 8H5.3158C5.3158 8.90415 5.57919 9.77126 6.04803 10.4106C6.51688 11.0499 7.15276 11.4091 7.8158 11.4091V10.0455ZM9.3158 8C9.3158 8.54249 9.15777 9.06276 8.87646 9.44635C8.59516 9.82995 8.21363 10.0455 7.8158 10.0455V11.4091C8.47884 11.4091 9.11473 11.0499 9.58357 10.4106C10.0524 9.77126 10.3158 8.90415 10.3158 8H9.3158ZM7.8158 5.95455C8.21363 5.95455 8.59516 6.17005 8.87646 6.55365C9.15777 6.93724 9.3158 7.45751 9.3158 8H10.3158C10.3158 7.09585 10.0524 6.22874 9.58357 5.58941C9.11473 4.95008 8.47884 4.59091 7.8158 4.59091V5.95455ZM7.8158 4.59091C7.15276 4.59091 6.51688 4.95008 6.04803 5.58941C5.57919 6.22874 5.3158 7.09585 5.3158 8H6.3158C6.3158 7.45751 6.47384 6.93724 6.75514 6.55365C7.03645 6.17005 7.41798 5.95455 7.8158 5.95455V4.59091Z" fill="#359E52"/>
</svg>
