<svg width="18" height="18" viewBox="0 0 18 18" fill="none" xmlns="http://www.w3.org/2000/svg">
<path d="M11.5 16.599L7.942 13.041L8.65 12.333L11.5 15.183L17.189 9.495L17.896 10.202L11.5 16.599ZM16 7.385H15V3.001C15 2.847 14.936 2.70567 14.808 2.577C14.68 2.44833 14.5387 2.38433 14.384 2.385H12V4.615H4V2.385H1.616C1.462 2.385 1.32067 2.449 1.192 2.577C1.06333 2.705 0.999333 2.84633 1 3.001V15.77C1 15.9233 1.064 16.0643 1.192 16.193C1.32 16.3217 1.461 16.3857 1.615 16.385H7V17.385H1.616C1.168 17.385 0.786667 17.2277 0.472 16.913C0.157333 16.5983 0 16.2173 0 15.77V3C0 2.55333 0.157333 2.17233 0.472 1.857C0.786667 1.54233 1.168 1.385 1.616 1.385H6.252C6.34533 0.994333 6.553 0.666 6.875 0.4C7.197 0.133333 7.572 0 8 0C8.436 0 8.814 0.133333 9.134 0.4C9.454 0.665333 9.66067 0.993667 9.754 1.385H14.384C14.832 1.385 15.2133 1.54233 15.528 1.857C15.8427 2.17167 16 2.553 16 3.001V7.385ZM8 2.615C8.232 2.615 8.42467 2.53867 8.578 2.386C8.73133 2.23267 8.808 2.04 8.808 1.808C8.808 1.576 8.73133 1.38333 8.578 1.23C8.42467 1.07667 8.232 1 8 1C7.768 1 7.57533 1.07667 7.422 1.23C7.26867 1.38333 7.192 1.576 7.192 1.808C7.192 2.04 7.26867 2.23267 7.422 2.386C7.57533 2.53933 7.768 2.615 8 2.615Z" fill="#373435"/>
</svg>
