<svg width="14" height="18" viewBox="0 0 14 18" fill="none" xmlns="http://www.w3.org/2000/svg">
<path d="M1.616 18C1.15533 18 0.771 17.846 0.463 17.538C0.155 17.23 0.000666667 16.8457 0 16.385V5.615C0 5.155 0.154333 4.771 0.463 4.463C0.771667 4.155 1.156 4.00067 1.616 4H3.5V3.5C3.5 2.528 3.84033 1.70167 4.521 1.021C5.20167 0.340333 6.028 0 7 0C7.972 0 8.79833 0.340333 9.479 1.021C10.1597 1.70167 10.5 2.528 10.5 3.5V4H12.385C12.845 4 13.229 4.15433 13.537 4.463C13.845 4.77167 13.9993 5.156 14 5.616V16.385C14 16.845 13.8457 17.2293 13.537 17.538C13.2283 17.8467 12.8443 18.0007 12.385 18H1.616ZM1.616 17H12.385C12.5383 17 12.6793 16.936 12.808 16.808C12.9367 16.68 13.0007 16.5387 13 16.384V5.616C13 5.462 12.936 5.32067 12.808 5.192C12.68 5.06333 12.5387 4.99933 12.384 5H10.5V7.5C10.5 7.64267 10.4523 7.76167 10.357 7.857C10.2617 7.95233 10.1427 8 10 8C9.85733 8 9.73833 7.95233 9.643 7.857C9.54767 7.76167 9.5 7.64267 9.5 7.5V5H4.5V7.5C4.5 7.64267 4.45233 7.76167 4.357 7.857C4.26167 7.95233 4.14267 8 4 8C3.85733 8 3.73833 7.95233 3.643 7.857C3.54767 7.76167 3.5 7.64267 3.5 7.5V5H1.616C1.462 5 1.32067 5.064 1.192 5.192C1.06333 5.32 0.999333 5.46133 1 5.616V16.385C1 16.5383 1.064 16.6793 1.192 16.808C1.32 16.9367 1.461 17.0007 1.615 17M4.5 4H9.5V3.5C9.5 2.796 9.25933 2.20333 8.778 1.722C8.29667 1.24067 7.704 1 7 1C6.296 1 5.70333 1.24067 5.222 1.722C4.74067 2.20333 4.5 2.796 4.5 3.5V4Z" fill="#373435"/>
</svg>
