<svg width="20" height="20" viewBox="0 0 20 20" fill="none" xmlns="http://www.w3.org/2000/svg">
<path d="M12.0594 0.968285C12.1606 0.862066 12.2166 0.719803 12.2153 0.572137C12.214 0.42447 12.1556 0.283215 12.0526 0.178796C11.9496 0.0743757 11.8103 0.0151455 11.6646 0.0138623C11.519 0.0125791 11.3786 0.0693457 11.2738 0.171935L9.99999 1.46333L8.72613 0.171935C8.67489 0.118145 8.61358 0.0752398 8.54581 0.0457236C8.47803 0.0162074 8.40513 0.000671082 8.33137 2.12644e-05C8.2576 -0.000628553 8.18445 0.013621 8.11617 0.0419386C8.0479 0.0702563 7.98587 0.112075 7.93371 0.164954C7.88155 0.217834 7.8403 0.280715 7.81237 0.349929C7.78443 0.419143 7.77038 0.493303 7.77102 0.568083C7.77166 0.642863 7.78698 0.716765 7.8161 0.785476C7.84521 0.854188 7.88754 0.916332 7.9406 0.968285L9.21445 2.25968L7.9406 3.55107C7.8394 3.65729 7.7834 3.79955 7.78467 3.94722C7.78594 4.09489 7.84436 4.23614 7.94736 4.34056C8.05037 4.44498 8.1897 4.50421 8.33536 4.50549C8.48103 4.50678 8.62136 4.45001 8.72613 4.34742L9.99999 3.05603L11.2738 4.34742C11.3781 4.45302 11.5194 4.51232 11.6668 4.51227C11.8142 4.51222 11.9555 4.45282 12.0597 4.34714C12.1638 4.24146 12.2223 4.09816 12.2223 3.94877C12.2222 3.79937 12.1636 3.65611 12.0594 3.55051L10.7855 2.25968L12.0594 0.968285Z" fill="#E3140F"/>
<path fill-rule="evenodd" clip-rule="evenodd" d="M0.38024 11.5236L2.22242 12.146V16.9026C2.22242 17.0198 2.25843 17.1339 2.32544 17.2293C2.39245 17.3247 2.48713 17.3966 2.5963 17.4349L9.81389 19.9675C9.92803 20.0086 10.0523 20.0108 10.1678 19.9737L10.1756 19.9715L10.1839 19.9687L17.4037 17.4349C17.5129 17.3966 17.6075 17.3247 17.6746 17.2293C17.7416 17.1339 17.7776 17.0198 17.7776 16.9026V12.146L19.6198 11.5236C19.7047 11.495 19.7816 11.4459 19.8439 11.3807C19.9061 11.3154 19.9519 11.2358 19.9772 11.1488C20.0026 11.0617 20.0068 10.9697 19.9896 10.8806C19.9723 10.7916 19.9341 10.708 19.8781 10.6372L17.6559 7.82122C17.59 7.73803 17.5022 7.67553 17.4026 7.641L10.1817 5.10665C10.064 5.06536 9.93602 5.06536 9.81834 5.10665L2.59741 7.641C2.49783 7.67553 2.40998 7.73803 2.34408 7.82122L0.121913 10.6372C0.0659351 10.708 0.027685 10.7916 0.0104211 10.8806C-0.00684272 10.9697 -0.00260842 11.0617 0.0227632 11.1488C0.0481349 11.2358 0.0938917 11.3154 0.156135 11.3807C0.218379 11.4459 0.295264 11.495 0.38024 11.5236ZM8.51059 13.8462L9.44446 12.4946V18.6463L3.3335 16.5017V12.521L7.88005 14.0574C7.99363 14.0957 8.11636 14.0957 8.22998 14.0576C8.34359 14.0194 8.44202 13.9457 8.51059 13.8462ZM4.47625 8.17321L10 10.1117L15.5238 8.17321L10 6.23471L4.47625 8.17321ZM11.4894 13.8468L10.5555 12.494V18.6463L16.6665 16.5017V12.521L12.1199 14.0574C12.0064 14.0957 11.8836 14.0957 11.77 14.0576C11.6564 14.0194 11.558 13.9451 11.4894 13.8457M2.96684 8.83552L1.48743 10.7104L4.54902 11.745L7.83783 12.8561L9.1228 10.9959L9.0478 10.9694L2.96684 8.83552ZM18.5126 10.7104L17.0332 8.83496L10.8772 10.9959L12.1622 12.8561L18.5126 10.7104Z" fill="#E3140F"/>
</svg>
