<svg width="14" height="14" viewBox="0 0 14 14" fill="none" xmlns="http://www.w3.org/2000/svg">
<path d="M1.68425 12.3421H2.55109L10.9969 3.89633L10.13 3.02949L1.68425 11.4753V12.3421ZM0.894775 13.1316V11.1421L11.3 0.72738C11.3816 0.655275 11.4711 0.599486 11.5685 0.560012C11.6658 0.520538 11.7677 0.500538 11.874 0.500012C11.9803 0.499486 12.0829 0.516328 12.1819 0.550538C12.2819 0.583696 12.374 0.643696 12.4582 0.730538L13.3006 1.57843C13.3874 1.66212 13.4469 1.75422 13.479 1.85475C13.5106 1.95475 13.5264 2.05475 13.5264 2.15475C13.5264 2.26212 13.5085 2.36475 13.4727 2.46264C13.4364 2.56001 13.379 2.64922 13.3006 2.73027L2.88346 13.1316H0.894775ZM10.5564 3.47001L10.13 3.02949L10.9969 3.89633L10.5564 3.47001Z" fill="#359E52"/>
</svg>
