<svg width="18" height="18" viewBox="0 0 18 18" fill="none" xmlns="http://www.w3.org/2000/svg">
<path d="M18 2.57143V1.28571H16.0714V0H14.7857V1.28571H14.1429C13.4338 1.28571 12.8571 1.863 12.8571 2.57143V3.85714C12.8571 4.56621 13.4338 5.14286 14.1429 5.14286H16.7143V6.42857H12.8571V7.71429H14.7857V9H16.0714V7.71429H16.7143C17.4234 7.71429 18 7.13764 18 6.42857V5.14286C18 4.43443 17.4234 3.85714 16.7143 3.85714H14.1429V2.57143H18ZM14.1429 11.5714V12.8571H15.8053L13.5 15.1624L12.0266 13.6884C11.9062 13.5679 11.743 13.5002 11.5727 13.5H11.5714C11.4012 13.5002 11.2379 13.5679 11.1176 13.6884L7.71429 17.091L8.62329 18L11.5721 15.0519L13.0455 16.5259C13.1661 16.6464 13.3295 16.7141 13.5 16.7141C13.6705 16.7141 13.8339 16.6464 13.9545 16.5259L16.7143 13.7661V15.4286H18V11.5714H14.1429ZM1.28571 18H0V14.7857C0 12.3043 2.01857 10.2857 4.5 10.2857H8.35714C9.63579 10.2857 10.8579 10.8321 11.7109 11.7855L10.7531 12.6431C10.4516 12.3059 10.0823 12.0362 9.66947 11.8516C9.25661 11.6669 8.80942 11.5714 8.35714 11.5714H4.5C2.72764 11.5714 1.28571 13.0134 1.28571 14.7857V18ZM6.42857 9C7.62205 9 8.76664 8.52589 9.61055 7.68198C10.4545 6.83807 10.9286 5.69347 10.9286 4.5C10.9286 3.30653 10.4545 2.16193 9.61055 1.31802C8.76664 0.474106 7.62205 0 6.42857 0C5.2351 0 4.0905 0.474106 3.24659 1.31802C2.40268 2.16193 1.92857 3.30653 1.92857 4.5C1.92857 5.69347 2.40268 6.83807 3.24659 7.68198C4.0905 8.52589 5.2351 9 6.42857 9ZM6.42857 1.28571C7.28105 1.28571 8.09862 1.62436 8.70141 2.22716C9.30421 2.82995 9.64286 3.64752 9.64286 4.5C9.64286 5.35248 9.30421 6.17005 8.70141 6.77284C8.09862 7.37564 7.28105 7.71429 6.42857 7.71429C5.57609 7.71429 4.75852 7.37564 4.15573 6.77284C3.55293 6.17005 3.21429 5.35248 3.21429 4.5C3.21429 3.64752 3.55293 2.82995 4.15573 2.22716C4.75852 1.62436 5.57609 1.28571 6.42857 1.28571Z" fill="#F58634"/>
</svg>
