<svg width="16" height="16" viewBox="0 0 16 16" fill="none" xmlns="http://www.w3.org/2000/svg">
<path d="M14.1313 2.98684L13.6418 10.1099C13.5171 11.9295 13.4547 12.8397 12.9471 13.4941C12.6965 13.8175 12.3739 14.0905 11.9997 14.2956C11.2442 14.7105 10.2313 14.7105 8.20551 14.7105C6.17656 14.7105 5.16209 14.7105 4.40498 14.2949C4.03068 14.0893 3.70804 13.8159 3.45761 13.492C2.95077 12.8369 2.88919 11.9253 2.76761 10.1028L2.28919 2.98684M1.10498 2.98684H15.3155M11.4123 2.98684L10.8731 1.98642C10.5155 1.32137 10.3363 0.989553 10.0276 0.782079C9.95904 0.736119 9.88643 0.695248 9.81051 0.659868C9.46867 0.5 9.05814 0.5 8.23788 0.5C7.3963 0.5 6.97551 0.5 6.62735 0.666263C6.55039 0.703361 6.47698 0.746139 6.40788 0.794158C6.09603 1.00945 5.92156 1.35405 5.57261 2.04255L5.09419 2.98684" stroke="#E3140F" stroke-width="0.789474" stroke-linecap="round" stroke-linejoin="round"/>
</svg>
