<svg width="44" height="44" viewBox="0 0 44 44" fill="none" xmlns="http://www.w3.org/2000/svg">
<circle cx="22" cy="22" r="21.5" fill="#8BCB90" fill-opacity="0.08" stroke="#8BCB90"/>
<mask id="path-2-inside-1_1491_1461" fill="white">
<path d="M10.8372 10.9231V10C10.6152 10 10.4022 10.0973 10.2452 10.2704C10.0882 10.4435 10 10.6783 10 10.9231H10.8372ZM23.1163 10.9231H23.9535C23.9535 10.6783 23.8653 10.4435 23.7083 10.2704C23.5513 10.0973 23.3383 10 23.1163 10V10.9231ZM23.1163 18.3079V17.3848C22.8942 17.3848 22.6813 17.4821 22.5243 17.6552C22.3673 17.8283 22.2791 18.0631 22.2791 18.3079H23.1163ZM10.8372 11.8462H23.1163V10H10.8372V11.8462ZM22.2791 10.9231V30.616H23.9535V10.9231H22.2791ZM11.6744 28.1544V10.9231H10V28.1544H11.6744ZM23.1163 19.231H28.6977V17.3848H23.1163V19.231ZM32.3256 23.2312V28.1544H34V23.2312H32.3256ZM23.9535 30.616V18.3079H22.2791V30.616H23.9535ZM29.6845 31.704C29.5549 31.8469 29.4011 31.9603 29.2317 32.0376C29.0624 32.115 28.8809 32.1548 28.6977 32.1548C28.5144 32.1548 28.3329 32.115 28.1636 32.0376C27.9943 31.9603 27.8405 31.8469 27.7109 31.704L26.5276 33.0087C27.1033 33.6434 27.8841 34 28.6982 34C29.5124 34 30.2931 33.6434 30.8688 33.0087L29.6845 31.704ZM27.7109 29.528C27.8405 29.3851 27.9943 29.2717 28.1636 29.1944C28.3329 29.117 28.5144 29.0772 28.6977 29.0772C28.8809 29.0772 29.0624 29.117 29.2317 29.1944C29.4011 29.2717 29.5549 29.3851 29.6845 29.528L30.8677 28.2233C30.292 27.5886 29.5112 27.232 28.6971 27.232C27.883 27.232 27.1022 27.5886 26.5265 28.2233L27.7109 29.528ZM16.2891 31.704C16.1595 31.8469 16.0057 31.9603 15.8364 32.0376C15.6671 32.115 15.4856 32.1548 15.3023 32.1548C15.1191 32.1548 14.9376 32.115 14.7683 32.0376C14.5989 31.9603 14.4451 31.8469 14.3155 31.704L13.1323 33.0087C13.708 33.6434 14.4888 34 15.3029 34C16.117 34 16.8978 33.6434 17.4735 33.0087L16.2891 31.704ZM14.3155 29.528C14.4451 29.3851 14.5989 29.2717 14.7683 29.1944C14.9376 29.117 15.1191 29.0772 15.3023 29.0772C15.4856 29.0772 15.6671 29.117 15.8364 29.1944C16.0057 29.2717 16.1595 29.3851 16.2891 29.528L17.4724 28.2233C16.8967 27.5886 16.1159 27.232 15.3018 27.232C14.4876 27.232 13.7069 27.5886 13.1312 28.2233L14.3155 29.528ZM29.6845 29.528C29.9568 29.8283 30.093 30.2209 30.093 30.616H31.7674C31.7674 29.7507 31.4672 28.883 30.8688 28.2221L29.6845 29.528ZM30.093 30.616C30.093 31.0111 29.9568 31.4037 29.6845 31.704L30.8688 33.0087C31.1543 32.6948 31.3796 32.3219 31.534 31.9113C31.6884 31.5007 31.7677 31.0605 31.7674 30.616H30.093ZM26.4651 29.6929H23.1163V31.5391H26.4651V29.6929ZM27.7109 31.704C27.581 31.5614 27.4781 31.3918 27.4079 31.2051C27.3378 31.0183 27.3019 30.8181 27.3023 30.616H25.6279C25.6279 31.4813 25.9282 32.349 26.5265 33.0099L27.7109 31.704ZM27.3023 30.616C27.3023 30.2209 27.4385 29.8283 27.7109 29.528L26.5265 28.2233C26.2411 28.5372 26.0158 28.9101 25.8614 29.3207C25.707 29.7313 25.6276 30.1715 25.6279 30.616H27.3023ZM14.3155 31.704C14.1857 31.5614 14.0827 31.3918 14.0126 31.2051C13.9425 31.0183 13.9066 30.8181 13.907 30.616H12.2326C12.2326 31.4813 12.5328 32.349 13.1312 33.0099L14.3155 31.704ZM13.907 30.616C13.907 30.2209 14.0432 29.8283 14.3155 29.528L13.1323 28.2233C12.8469 28.5372 12.6205 28.9102 12.4661 29.3208C12.3117 29.7314 12.2324 30.1715 12.2326 30.616H13.907ZM23.1163 29.6929H17.5349V31.5391H23.1163V29.6929ZM16.2891 29.528C16.5615 29.8283 16.6977 30.2209 16.6977 30.616H18.3721C18.3721 29.7507 18.0718 28.883 17.4735 28.2221L16.2891 29.528ZM16.6977 30.616C16.6977 31.0111 16.5615 31.4037 16.2891 31.704L17.4724 33.0087C17.7578 32.6948 17.9841 32.3218 18.1385 31.9112C18.2929 31.5006 18.3723 31.0605 18.3721 30.616H16.6977ZM32.3256 28.1544C32.3256 29.0037 31.7005 29.6929 30.9302 29.6929V31.5391C31.7444 31.5391 32.5252 31.1825 33.1009 30.5478C33.6766 29.913 34 29.0521 34 28.1544H32.3256ZM28.6977 19.231C29.6599 19.231 30.5826 19.6525 31.263 20.4027C31.9434 21.1528 32.3256 22.1703 32.3256 23.2312H34C34 21.6806 33.4414 20.1936 32.447 19.0972C31.4526 18.0008 30.1039 17.3848 28.6977 17.3848V19.231ZM10 28.1544C10 29.0521 10.3234 29.913 10.8991 30.5478C11.4748 31.1825 12.2556 31.5391 13.0698 31.5391V29.6929C12.2995 29.6929 11.6744 29.0037 11.6744 28.1544H10Z"/>
</mask>
<path d="M10.8372 10.9231V10C10.6152 10 10.4022 10.0973 10.2452 10.2704C10.0882 10.4435 10 10.6783 10 10.9231H10.8372ZM23.1163 10.9231H23.9535C23.9535 10.6783 23.8653 10.4435 23.7083 10.2704C23.5513 10.0973 23.3383 10 23.1163 10V10.9231ZM23.1163 18.3079V17.3848C22.8942 17.3848 22.6813 17.4821 22.5243 17.6552C22.3673 17.8283 22.2791 18.0631 22.2791 18.3079H23.1163ZM10.8372 11.8462H23.1163V10H10.8372V11.8462ZM22.2791 10.9231V30.616H23.9535V10.9231H22.2791ZM11.6744 28.1544V10.9231H10V28.1544H11.6744ZM23.1163 19.231H28.6977V17.3848H23.1163V19.231ZM32.3256 23.2312V28.1544H34V23.2312H32.3256ZM23.9535 30.616V18.3079H22.2791V30.616H23.9535ZM29.6845 31.704C29.5549 31.8469 29.4011 31.9603 29.2317 32.0376C29.0624 32.115 28.8809 32.1548 28.6977 32.1548C28.5144 32.1548 28.3329 32.115 28.1636 32.0376C27.9943 31.9603 27.8405 31.8469 27.7109 31.704L26.5276 33.0087C27.1033 33.6434 27.8841 34 28.6982 34C29.5124 34 30.2931 33.6434 30.8688 33.0087L29.6845 31.704ZM27.7109 29.528C27.8405 29.3851 27.9943 29.2717 28.1636 29.1944C28.3329 29.117 28.5144 29.0772 28.6977 29.0772C28.8809 29.0772 29.0624 29.117 29.2317 29.1944C29.4011 29.2717 29.5549 29.3851 29.6845 29.528L30.8677 28.2233C30.292 27.5886 29.5112 27.232 28.6971 27.232C27.883 27.232 27.1022 27.5886 26.5265 28.2233L27.7109 29.528ZM16.2891 31.704C16.1595 31.8469 16.0057 31.9603 15.8364 32.0376C15.6671 32.115 15.4856 32.1548 15.3023 32.1548C15.1191 32.1548 14.9376 32.115 14.7683 32.0376C14.5989 31.9603 14.4451 31.8469 14.3155 31.704L13.1323 33.0087C13.708 33.6434 14.4888 34 15.3029 34C16.117 34 16.8978 33.6434 17.4735 33.0087L16.2891 31.704ZM14.3155 29.528C14.4451 29.3851 14.5989 29.2717 14.7683 29.1944C14.9376 29.117 15.1191 29.0772 15.3023 29.0772C15.4856 29.0772 15.6671 29.117 15.8364 29.1944C16.0057 29.2717 16.1595 29.3851 16.2891 29.528L17.4724 28.2233C16.8967 27.5886 16.1159 27.232 15.3018 27.232C14.4876 27.232 13.7069 27.5886 13.1312 28.2233L14.3155 29.528ZM29.6845 29.528C29.9568 29.8283 30.093 30.2209 30.093 30.616H31.7674C31.7674 29.7507 31.4672 28.883 30.8688 28.2221L29.6845 29.528ZM30.093 30.616C30.093 31.0111 29.9568 31.4037 29.6845 31.704L30.8688 33.0087C31.1543 32.6948 31.3796 32.3219 31.534 31.9113C31.6884 31.5007 31.7677 31.0605 31.7674 30.616H30.093ZM26.4651 29.6929H23.1163V31.5391H26.4651V29.6929ZM27.7109 31.704C27.581 31.5614 27.4781 31.3918 27.4079 31.2051C27.3378 31.0183 27.3019 30.8181 27.3023 30.616H25.6279C25.6279 31.4813 25.9282 32.349 26.5265 33.0099L27.7109 31.704ZM27.3023 30.616C27.3023 30.2209 27.4385 29.8283 27.7109 29.528L26.5265 28.2233C26.2411 28.5372 26.0158 28.9101 25.8614 29.3207C25.707 29.7313 25.6276 30.1715 25.6279 30.616H27.3023ZM14.3155 31.704C14.1857 31.5614 14.0827 31.3918 14.0126 31.2051C13.9425 31.0183 13.9066 30.8181 13.907 30.616H12.2326C12.2326 31.4813 12.5328 32.349 13.1312 33.0099L14.3155 31.704ZM13.907 30.616C13.907 30.2209 14.0432 29.8283 14.3155 29.528L13.1323 28.2233C12.8469 28.5372 12.6205 28.9102 12.4661 29.3208C12.3117 29.7314 12.2324 30.1715 12.2326 30.616H13.907ZM23.1163 29.6929H17.5349V31.5391H23.1163V29.6929ZM16.2891 29.528C16.5615 29.8283 16.6977 30.2209 16.6977 30.616H18.3721C18.3721 29.7507 18.0718 28.883 17.4735 28.2221L16.2891 29.528ZM16.6977 30.616C16.6977 31.0111 16.5615 31.4037 16.2891 31.704L17.4724 33.0087C17.7578 32.6948 17.9841 32.3218 18.1385 31.9112C18.2929 31.5006 18.3723 31.0605 18.3721 30.616H16.6977ZM32.3256 28.1544C32.3256 29.0037 31.7005 29.6929 30.9302 29.6929V31.5391C31.7444 31.5391 32.5252 31.1825 33.1009 30.5478C33.6766 29.913 34 29.0521 34 28.1544H32.3256ZM28.6977 19.231C29.6599 19.231 30.5826 19.6525 31.263 20.4027C31.9434 21.1528 32.3256 22.1703 32.3256 23.2312H34C34 21.6806 33.4414 20.1936 32.447 19.0972C31.4526 18.0008 30.1039 17.3848 28.6977 17.3848V19.231ZM10 28.1544C10 29.0521 10.3234 29.913 10.8991 30.5478C11.4748 31.1825 12.2556 31.5391 13.0698 31.5391V29.6929C12.2995 29.6929 11.6744 29.0037 11.6744 28.1544H10Z" fill="#359E52"/>
<path d="M22.2791 31.116H23.9535V30.116H22.2791V31.116ZM10 28.6544H11.6744V27.6544H10V28.6544ZM29.1977 19.231V17.3848H28.1977V19.231H29.1977ZM32.3256 28.6544H34V27.6544H32.3256V28.6544ZM34 22.7312H32.3256V23.7312H34V22.7312ZM31.239 32.6726L30.0547 31.368L29.3143 32.0401L30.4986 33.3448L31.239 32.6726ZM26.1563 28.5594L27.3407 29.864L28.0811 29.1919L26.8967 27.8872L26.1563 28.5594ZM30.093 31.116H31.7674V30.116H30.093V31.116ZM22.6163 29.6929V31.5391H23.6163V29.6929H22.6163ZM27.3023 30.116H25.6279V31.116H27.3023V30.116ZM13.907 30.116H12.2326V31.116H13.907V30.116ZM16.6977 31.116H18.3721V30.116H16.6977V31.116ZM10.8372 10.9231V11.9231H11.8372V10.9231H10.8372ZM23.1163 10.9231H22.1163V11.9231H23.1163V10.9231ZM23.1163 18.3079V19.3079H24.1163V18.3079H23.1163ZM10.8372 11.8462H9.83721V12.8462H10.8372V11.8462ZM23.1163 11.8462V12.8462H24.1163V11.8462H23.1163ZM22.2791 10.9231V9.9231H21.2791V10.9231H22.2791ZM11.6744 10.9231H12.6744V9.9231H11.6744V10.9231ZM10 28.1544H9H10ZM23.1163 19.231H22.1163V20.231H23.1163V19.231ZM28.6977 17.3848V16.3848V17.3848ZM23.9535 18.3079H24.9535V17.3079H23.9535V18.3079ZM29.6845 31.704L28.9437 31.0322L28.9436 31.0323L29.6845 31.704ZM27.7109 31.704L28.4517 31.0323L28.4504 31.0309L27.7109 31.704ZM26.5276 33.0087L25.7869 32.3369L25.1776 33.0087L25.7869 33.6805L26.5276 33.0087ZM28.6982 34V35V34ZM30.8688 33.0087L30.129 32.3359L30.1281 32.3369L30.8688 33.0087ZM27.7109 29.528L28.4516 30.1998L28.4517 30.1997L27.7109 29.528ZM29.6845 29.528L28.9436 30.1997L28.9437 30.1998L29.6845 29.528ZM30.8677 28.2233L31.6085 28.8951L32.2178 28.2233L31.6084 27.5515L30.8677 28.2233ZM28.6971 27.232V26.232V27.232ZM26.5265 28.2233L27.2663 28.8961L27.2672 28.8951L26.5265 28.2233ZM16.2891 31.704L15.5484 31.0322L15.5483 31.0323L16.2891 31.704ZM14.3155 31.704L15.0564 31.0323L15.055 31.0309L14.3155 31.704ZM13.1323 33.0087L12.3916 32.3369L11.7822 33.0087L12.3916 33.6805L13.1323 33.0087ZM15.3029 34V35V34ZM17.4735 33.0087L18.2142 33.6805L18.8238 33.0084L18.2139 32.3365L17.4735 33.0087ZM14.3155 29.528L15.0563 30.1998L15.0564 30.1997L14.3155 29.528ZM16.2891 29.528L15.5483 30.1997L15.5484 30.1998L16.2891 29.528ZM17.4724 28.2233L18.2131 28.8951L18.8224 28.2233L18.2131 27.5515L17.4724 28.2233ZM15.3018 27.232V26.232V27.232ZM13.1312 28.2233L12.3904 27.5515L11.7808 28.2236L12.3907 28.8955L13.1312 28.2233ZM31.7674 30.616H30.7674V30.6166L31.7674 30.616ZM30.8688 28.2221L31.6102 27.551L30.8695 26.7328L30.1281 27.5503L30.8688 28.2221ZM26.4651 29.6929H27.4651V28.6929H26.4651V29.6929ZM26.4651 31.5391V32.5391H27.4651V31.5391H26.4651ZM27.3023 30.616L28.3023 30.618V30.616H27.3023ZM25.6279 30.616H26.6279L26.6279 30.6154L25.6279 30.616ZM26.5265 33.0099L25.7852 33.681L26.5258 34.4992L27.2672 33.6817L26.5265 33.0099ZM13.907 30.616L14.907 30.618V30.616H13.907ZM12.2326 30.616H13.2326V30.6155L12.2326 30.616ZM13.1312 33.0099L12.3898 33.681L13.1305 34.4992L13.8719 33.6817L13.1312 33.0099ZM13.1323 28.2233L13.873 27.5515L13.1332 26.7358L12.3923 27.5506L13.1323 28.2233ZM17.5349 29.6929V28.6929H16.5349V29.6929H17.5349ZM17.5349 31.5391H16.5349V32.5391H17.5349V31.5391ZM18.3721 30.616H17.3721L17.3721 30.6165L18.3721 30.616ZM17.4735 28.2221L18.2148 27.551L17.4742 26.7328L16.7328 27.5503L17.4735 28.2221ZM17.4724 33.0087L16.7316 33.6805L17.4715 34.4963L18.2123 33.6814L17.4724 33.0087ZM30.9302 29.6929V28.6929H29.9302V29.6929H30.9302ZM30.9302 31.5391H29.9302V32.5391H30.9302V31.5391ZM13.0698 31.5391V32.5391H14.0698V31.5391H13.0698ZM13.0698 29.6929H14.0698V28.6929H13.0698V29.6929ZM11.8372 10.9231V10H9.83721V10.9231H11.8372ZM10.8372 9C10.3167 9 9.83979 9.22886 9.50448 9.59857L10.9859 10.9422C10.9647 10.9656 10.9137 11 10.8372 11V9ZM9.50448 9.59857C9.17212 9.96503 9 10.4429 9 10.9231H11C11 10.9203 11.0006 10.9196 10.9999 10.9215C10.9991 10.9234 10.9959 10.9312 10.9859 10.9422L9.50448 9.59857ZM10 11.9231H10.8372V9.9231H10V11.9231ZM23.1163 11.9231H23.9535V9.9231H23.1163V11.9231ZM24.9535 10.9231C24.9535 10.4429 24.7814 9.96503 24.449 9.59857L22.9675 10.9422C22.9576 10.9312 22.9543 10.9234 22.9536 10.9215C22.9529 10.9196 22.9535 10.9203 22.9535 10.9231H24.9535ZM24.449 9.59857C24.1137 9.22886 23.6368 9 23.1163 9V11C23.0398 11 22.9888 10.9656 22.9675 10.9422L24.449 9.59857ZM22.1163 10V10.9231H24.1163V10H22.1163ZM24.1163 18.3079V17.3848H22.1163V18.3079H24.1163ZM23.1163 16.3848C22.5958 16.3848 22.1189 16.6137 21.7836 16.9834L23.265 18.327C23.2437 18.3505 23.1927 18.3848 23.1163 18.3848V16.3848ZM21.7836 16.9834C21.4512 17.3499 21.2791 17.8277 21.2791 18.3079H23.2791C23.2791 18.3052 23.2796 18.3044 23.2789 18.3064C23.2782 18.3083 23.2749 18.3161 23.265 18.327L21.7836 16.9834ZM22.2791 19.3079H23.1163V17.3079H22.2791V19.3079ZM10.8372 12.8462H23.1163V10.8462H10.8372V12.8462ZM24.1163 11.8462V10H22.1163V11.8462H24.1163ZM23.1163 9H10.8372V11H23.1163V9ZM9.83721 10V11.8462H11.8372V10H9.83721ZM21.2791 10.9231V30.616H23.2791V10.9231H21.2791ZM24.9535 30.616V10.9231H22.9535V30.616H24.9535ZM23.9535 9.9231H22.2791V11.9231H23.9535V9.9231ZM12.6744 28.1544V10.9231H10.6744V28.1544H12.6744ZM11.6744 9.9231H10V11.9231H11.6744V9.9231ZM9 10.9231V28.1544H11V10.9231H9ZM23.1163 20.231H28.6977V18.231H23.1163V20.231ZM28.6977 16.3848H23.1163V18.3848H28.6977V16.3848ZM22.1163 17.3848V19.231H24.1163V17.3848H22.1163ZM31.3256 23.2312V28.1544H33.3256V23.2312H31.3256ZM35 28.1544V23.2312H33V28.1544H35ZM24.9535 30.616V18.3079H22.9535V30.616H24.9535ZM23.9535 17.3079H22.2791V19.3079H23.9535V17.3079ZM21.2791 18.3079V30.616H23.2791V18.3079H21.2791ZM28.9436 31.0323C28.9019 31.0784 28.8576 31.1092 28.8162 31.1281L29.6472 32.9472C29.9445 32.8115 30.2079 32.6155 30.4253 32.3757L28.9436 31.0323ZM28.8162 31.1281C28.7752 31.1468 28.7353 31.1548 28.6977 31.1548V33.1548C29.0266 33.1548 29.3496 33.0832 29.6472 32.9472L28.8162 31.1281ZM28.6977 31.1548C28.6601 31.1548 28.6201 31.1468 28.5791 31.1281L27.7481 32.9472C28.0457 33.0832 28.3687 33.1548 28.6977 33.1548V31.1548ZM28.5791 31.1281C28.5378 31.1092 28.4935 31.0784 28.4517 31.0323L26.9701 32.3757C27.1874 32.6155 27.4508 32.8115 27.7481 32.9472L28.5791 31.1281ZM26.9702 31.0322L25.7869 32.3369L27.2684 33.6805L28.4516 32.3758L26.9702 31.0322ZM25.7869 33.6805C26.5409 34.5118 27.5856 35 28.6982 35V33C28.1826 33 27.6657 32.775 27.2683 32.3369L25.7869 33.6805ZM28.6982 35C29.8108 35 30.8556 34.5118 31.6096 33.6805L30.1281 32.3369C29.7307 32.775 29.2139 33 28.6982 33V35ZM28.4517 30.1997C28.4935 30.1536 28.5378 30.1229 28.5791 30.104L27.7481 28.2848C27.4508 28.4206 27.1874 28.6165 26.9701 28.8563L28.4517 30.1997ZM28.5791 30.104C28.6201 30.0852 28.6601 30.0772 28.6977 30.0772V28.0772C28.3687 28.0772 28.0457 28.1488 27.7481 28.2848L28.5791 30.104ZM28.6977 30.0772C28.7353 30.0772 28.7752 30.0852 28.8162 30.104L29.6472 28.2848C29.3496 28.1488 29.0266 28.0772 28.6977 28.0772V30.0772ZM28.8162 30.104C28.8576 30.1229 28.9019 30.1536 28.9436 30.1997L30.4253 28.8563C30.2079 28.6165 29.9445 28.4206 29.6472 28.2848L28.8162 30.104ZM30.4252 30.1998L31.6085 28.8951L30.127 27.5515L28.9437 28.8562L30.4252 30.1998ZM31.6084 27.5515C30.8545 26.7202 29.8097 26.232 28.6971 26.232V28.232C29.2128 28.232 29.7296 28.457 30.127 28.8951L31.6084 27.5515ZM28.6971 26.232C27.5845 26.232 26.5398 26.7202 25.7858 27.5515L27.2672 28.8951C27.6646 28.457 28.1815 28.232 28.6971 28.232V26.232ZM15.5483 31.0323C15.5065 31.0784 15.4622 31.1092 15.4209 31.1281L16.2519 32.9472C16.5492 32.8115 16.8126 32.6155 17.0299 32.3757L15.5483 31.0323ZM15.4209 31.1281C15.3799 31.1468 15.3399 31.1548 15.3023 31.1548V33.1548C15.6313 33.1548 15.9543 33.0832 16.2519 32.9472L15.4209 31.1281ZM15.3023 31.1548C15.2647 31.1548 15.2248 31.1468 15.1838 31.1281L14.3528 32.9472C14.6504 33.0832 14.9734 33.1548 15.3023 33.1548V31.1548ZM15.1838 31.1281C15.1424 31.1092 15.0981 31.0784 15.0564 31.0323L13.5747 32.3757C13.7921 32.6155 14.0555 32.8115 14.3528 32.9472L15.1838 31.1281ZM13.5748 31.0322L12.3916 32.3369L13.873 33.6805L15.0563 32.3758L13.5748 31.0322ZM12.3916 33.6805C13.1456 34.5118 14.1903 35 15.3029 35V33C14.7872 33 14.2704 32.775 13.873 32.3369L12.3916 33.6805ZM15.3029 35C16.4155 35 17.4602 34.5118 18.2142 33.6805L16.7328 32.3369C16.3354 32.775 15.8185 33 15.3029 33V35ZM18.2139 32.3365L17.0295 31.0319L15.5487 32.3762L16.7331 33.6808L18.2139 32.3365ZM15.0564 30.1997C15.0981 30.1536 15.1424 30.1228 15.1838 30.104L14.3528 28.2848C14.0555 28.4206 13.7921 28.6165 13.5747 28.8563L15.0564 30.1997ZM15.1838 30.104C15.2248 30.0852 15.2647 30.0772 15.3023 30.0772V28.0772C14.9734 28.0772 14.6504 28.1488 14.3528 28.2848L15.1838 30.104ZM15.3023 30.0772C15.3399 30.0772 15.3799 30.0852 15.4209 30.104L16.2519 28.2848C15.9543 28.1488 15.6313 28.0772 15.3023 28.0772V30.0772ZM15.4209 30.104C15.4622 30.1228 15.5065 30.1536 15.5483 30.1997L17.0299 28.8563C16.8126 28.6165 16.5492 28.4206 16.2519 28.2848L15.4209 30.104ZM17.0298 30.1998L18.2131 28.8951L16.7316 27.5515L15.5484 28.8562L17.0298 30.1998ZM18.2131 27.5515C17.4591 26.7202 16.4144 26.232 15.3018 26.232V28.232C15.8174 28.232 16.3343 28.457 16.7317 28.8951L18.2131 27.5515ZM15.3018 26.232C14.1892 26.232 13.1444 26.7202 12.3904 27.5515L13.8719 28.8951C14.2693 28.457 14.7861 28.232 15.3018 28.232V26.232ZM12.3907 28.8955L13.5751 30.2001L15.0559 28.8558L13.8716 27.5512L12.3907 28.8955ZM28.9437 30.1998C29.0344 30.2998 29.093 30.4463 29.093 30.616H31.093C31.093 29.9956 30.8793 29.3568 30.4252 28.8562L28.9437 30.1998ZM32.7674 30.616C32.7674 29.5255 32.3897 28.412 31.6102 27.551L30.1275 28.8932C30.5447 29.3541 30.7674 29.976 30.7674 30.616H32.7674ZM30.1281 27.5503L28.9437 28.8562L30.4252 30.1998L31.6096 28.8939L30.1281 27.5503ZM29.093 30.616C29.093 30.7858 29.0344 30.9323 28.9437 31.0322L30.4252 32.3758C30.8793 31.8752 31.093 31.2364 31.093 30.616H29.093ZM31.6087 33.6815C31.9831 33.2698 32.2732 32.7867 32.47 32.2632L30.598 31.5593C30.486 31.8571 30.3255 32.1199 30.129 32.3359L31.6087 33.6815ZM32.47 32.2632C32.6673 31.7384 32.7678 31.1787 32.7674 30.6154L30.7674 30.6166C30.7676 30.9423 30.7094 31.2629 30.598 31.5593L32.47 32.2632ZM26.4651 28.6929H23.1163V30.6929H26.4651V28.6929ZM23.1163 32.5391H26.4651V30.5391H23.1163V32.5391ZM27.4651 31.5391V29.6929H25.4651V31.5391H27.4651ZM28.4504 31.0309C28.4088 30.9852 28.3712 30.9257 28.3441 30.8535L26.4718 31.5566C26.5849 31.8579 26.7533 32.1376 26.9714 32.3772L28.4504 31.0309ZM28.3441 30.8535C28.317 30.7813 28.3022 30.701 28.3023 30.618L26.3023 30.614C26.3017 30.9352 26.3586 31.2553 26.4718 31.5566L28.3441 30.8535ZM24.6279 30.616C24.6279 31.7065 25.0057 32.82 25.7852 33.681L27.2679 32.3388C26.8507 31.878 26.6279 31.256 26.6279 30.616H24.6279ZM27.2672 33.6817L28.4516 32.3758L26.9702 31.0322L25.7858 32.3381L27.2672 33.6817ZM28.3023 30.616C28.3023 30.4463 28.3609 30.2998 28.4516 30.1998L26.9702 28.8562C26.5161 29.3568 26.3023 29.9956 26.3023 30.616H28.3023ZM25.7867 27.5505C25.4123 27.9623 25.1222 28.4453 24.9254 28.9688L26.7974 29.6727C26.9094 29.375 27.0699 29.1121 27.2663 28.8961L25.7867 27.5505ZM24.9254 28.9688C24.728 29.4936 24.6276 30.0533 24.6279 30.6166L26.6279 30.6154C26.6277 30.2897 26.6859 29.9691 26.7974 29.6727L24.9254 28.9688ZM15.055 31.0309C15.0134 30.9852 14.9759 30.9257 14.9488 30.8535L13.0764 31.5566C13.1896 31.8579 13.3579 32.1376 13.5761 32.3772L15.055 31.0309ZM14.9488 30.8535C14.9217 30.7813 14.9068 30.701 14.907 30.618L12.907 30.614C12.9063 30.9352 12.9633 31.2553 13.0764 31.5566L14.9488 30.8535ZM11.2326 30.616C11.2326 31.7065 11.6104 32.82 12.3898 33.681L13.8725 32.3388C13.4553 31.878 13.2326 31.256 13.2326 30.616H11.2326ZM13.8719 33.6817L15.0563 32.3758L13.5748 31.0322L12.3904 32.3381L13.8719 33.6817ZM14.907 30.616C14.907 30.4463 14.9656 30.2998 15.0563 30.1998L13.5748 28.8562C13.1207 29.3568 12.907 29.9956 12.907 30.616H14.907ZM15.0563 28.8562L13.873 27.5515L12.3916 28.8951L13.5748 30.1998L15.0563 28.8562ZM12.3923 27.5506C12.019 27.9613 11.7275 28.444 11.5301 28.9688L13.4021 29.6727C13.5136 29.3764 13.6748 29.1132 13.8722 28.896L12.3923 27.5506ZM11.5301 28.9688C11.3328 29.4936 11.2323 30.0532 11.2326 30.6165L13.2326 30.6155C13.2324 30.2898 13.2907 29.9692 13.4021 29.6727L11.5301 28.9688ZM23.1163 28.6929H17.5349V30.6929H23.1163V28.6929ZM16.5349 29.6929V31.5391H18.5349V29.6929H16.5349ZM17.5349 32.5391H23.1163V30.5391H17.5349V32.5391ZM15.5484 30.1998C15.6391 30.2998 15.6977 30.4463 15.6977 30.616H17.6977C17.6977 29.9956 17.4839 29.3568 17.0298 28.8562L15.5484 30.1998ZM19.3721 30.616C19.3721 29.5255 18.9943 28.412 18.2148 27.551L16.7321 28.8932C17.1493 29.3541 17.3721 29.976 17.3721 30.616H19.3721ZM16.7328 27.5503L15.5484 28.8562L17.0298 30.1998L18.2142 28.8939L16.7328 27.5503ZM15.6977 30.616C15.6977 30.7858 15.6391 30.9323 15.5484 31.0322L17.0298 32.3758C17.4839 31.8752 17.6977 31.2364 17.6977 30.616H15.6977ZM15.5484 32.3758L16.7316 33.6805L18.2131 32.3369L17.0298 31.0322L15.5484 32.3758ZM18.2123 33.6814C18.5856 33.2707 18.8772 32.788 19.0745 32.2632L17.2025 31.5593C17.0911 31.8556 16.9299 32.1188 16.7324 32.336L18.2123 33.6814ZM19.0745 32.2632C19.2719 31.7384 19.3724 31.1788 19.3721 30.6155L17.3721 30.6165C17.3722 30.9422 17.314 31.2629 17.2025 31.5593L19.0745 32.2632ZM31.3256 28.1544C31.3256 28.5455 31.0585 28.6929 30.9302 28.6929V30.6929C32.3424 30.6929 33.3256 29.4618 33.3256 28.1544H31.3256ZM29.9302 29.6929V31.5391H31.9302V29.6929H29.9302ZM30.9302 32.5391C32.0429 32.5391 33.0876 32.0509 33.8416 31.2196L32.3602 29.8759C31.9628 30.3141 31.4459 30.5391 30.9302 30.5391V32.5391ZM33.8416 31.2196C34.5927 30.3915 35 29.2875 35 28.1544H33C33 28.8167 32.7605 29.4345 32.3602 29.8759L33.8416 31.2196ZM28.6977 20.231C29.3614 20.231 30.0202 20.5209 30.5223 21.0745L32.0037 19.7309C31.1451 18.7841 29.9583 18.231 28.6977 18.231V20.231ZM30.5223 21.0745C31.0273 21.6313 31.3256 22.4057 31.3256 23.2312H33.3256C33.3256 21.9349 32.8594 20.6744 32.0037 19.7309L30.5223 21.0745ZM35 23.2312C35 21.4452 34.3574 19.7151 33.1877 18.4254L31.7063 19.769C32.5253 20.672 33 21.916 33 23.2312H35ZM33.1877 18.4254C32.015 17.1324 30.4024 16.3848 28.6977 16.3848V18.3848C29.8055 18.3848 30.8902 18.8692 31.7063 19.769L33.1877 18.4254ZM9 28.1544C9 29.2875 9.40734 30.3915 10.1584 31.2196L11.6398 29.8759C11.2395 29.4345 11 28.8167 11 28.1544H9ZM10.1584 31.2196C10.9124 32.0509 11.9571 32.5391 13.0698 32.5391V30.5391C12.5541 30.5391 12.0372 30.3141 11.6398 29.8759L10.1584 31.2196ZM14.0698 31.5391V29.6929H12.0698V31.5391H14.0698ZM13.0698 28.6929C12.9415 28.6929 12.6744 28.5455 12.6744 28.1544H10.6744C10.6744 29.4618 11.6576 30.6929 13.0698 30.6929V28.6929Z" fill="#8BCB90" mask="url(#path-2-inside-1_1491_1461)"/>
<path d="M10.8379 17.0771H14.1867M10.8379 22.0004H16.4193" stroke="#8BCB90" stroke-width="1.5" stroke-linecap="round" stroke-linejoin="round"/>
</svg>
